<?xml version="1.0" standalone="no"?>
<!DOCTYPE svg PUBLIC "-//W3C//DTD SVG 20010904//EN"
 "http://www.w3.org/TR/2001/REC-SVG-20010904/DTD/svg10.dtd">
<svg version="1.0" xmlns="http://www.w3.org/2000/svg"
 width="500.000000pt" height="500.000000pt" viewBox="0 0 500.000000 500.000000"
 preserveAspectRatio="xMidYMid meet">

<g transform="translate(0.000000,500.000000) scale(0.100000,-0.100000)"
fill="#000000" stroke="none">
<path d="M0 2500 l0 -2500 2500 0 2500 0 0 2500 0 2500 -2500 0 -2500 0 0
-2500z m2427 1034 c-3 -3 -12 -4 -19 -1 -8 3 -5 6 6 6 11 1 17 -2 13 -5z m76
-91 c-13 -2 -33 -2 -45 0 -13 2 -3 4 22 4 25 0 35 -2 23 -4z m237 -3 c16 -5 2
-6 -35 -3 -33 3 -62 7 -64 9 -8 7 74 2 99 -6z m-317 -7 c-7 -2 -21 -2 -30 0
-10 3 -4 5 12 5 17 0 24 -2 18 -5z m-108 -22 c-33 -10 -73 -23 -88 -30 -36
-14 -48 -14 -22 1 28 16 126 47 150 47 11 0 -7 -8 -40 -18z m482 13 c-3 -3
-12 -4 -19 -1 -8 3 -5 6 6 6 11 1 17 -2 13 -5z m83 -19 c19 -7 28 -13 20 -13
-8 0 -31 6 -50 13 -19 7 -28 13 -20 13 8 0 31 -6 50 -13z m460 -45 c0 -5 -4
-10 -10 -10 -5 0 -10 5 -10 10 0 6 5 10 10 10 6 0 10 -4 10 -10z m229 1 c8 -5
11 -16 8 -25 -7 -18 -38 -21 -54 -5 -17 17 -80 0 -136 -38 -35 -23 -45 -28
-32 -13 27 30 84 58 134 66 23 4 44 11 47 15 7 11 15 11 33 0z m-1410 -5 c-10
-9 -69 -36 -69 -32 0 7 52 35 64 36 5 0 7 -2 5 -4z m846 -6 c3 -6 -1 -7 -9 -4
-18 7 -21 14 -7 14 6 0 13 -4 16 -10z m-1075 -14 c0 -2 -8 -10 -17 -17 -16
-13 -17 -12 -4 4 13 16 21 21 21 13z m1115 -6 c3 -6 -1 -7 -9 -4 -18 7 -21 14
-7 14 6 0 13 -4 16 -10z m-995 -33 c0 -2 -15 -13 -32 -26 l-33 -22 28 25 c26
24 37 31 37 23z m-220 -52 c-24 -25 -46 -45 -49 -45 -3 0 15 20 39 45 24 25
46 45 49 45 3 0 -15 -20 -39 -45z m94 -50 c-67 -59 -160 -176 -193 -242 -12
-24 -24 -43 -26 -43 -11 0 39 88 86 151 46 63 171 189 187 189 4 0 -20 -25
-54 -55z m1389 36 l-22 -18 30 -42 c17 -22 35 -41 40 -41 5 0 9 -5 9 -11 0 -6
11 -25 24 -42 12 -18 26 -39 30 -47 4 -8 -1 -4 -11 10 -10 14 -28 34 -40 46
-13 12 -23 25 -23 30 0 5 -13 24 -28 42 -20 24 -32 31 -45 26 -15 -5 -15 -9
-5 -23 12 -14 11 -14 -4 -2 -13 9 -15 18 -9 29 6 10 5 24 -1 37 -10 18 -9 18
5 7 14 -12 20 -11 39 2 31 22 38 20 11 -3z m177 2 c-8 -3 -21 -10 -27 -16 -9
-7 -13 -5 -13 7 0 11 8 16 28 15 15 0 21 -3 12 -6z m58 -16 c2 -10 -3 -17 -12
-17 -18 0 -29 16 -21 31 9 14 29 6 33 -14z m-2178 -37 c0 -5 14 -10 30 -10 30
0 100 -24 100 -34 0 -3 -16 2 -35 10 -40 16 -91 19 -100 4 -3 -5 -12 -10 -20
-10 -15 0 -28 27 -19 41 7 12 44 11 44 -1z m210 0 c0 -5 -4 -10 -10 -10 -5 0
-10 5 -10 10 0 6 5 10 10 10 6 0 10 -4 10 -10z m160 -40 c-42 -54 -47 -51 -8
5 17 25 34 43 36 40 2 -2 -10 -22 -28 -45z m-146 -83 l49 -49 22 36 c38 63 39
54 2 -14 -20 -36 -48 -97 -62 -135 -27 -70 -44 -102 -30 -55 4 14 18 53 32 87
20 51 22 65 12 81 -7 11 -18 18 -25 15 -6 -2 -15 0 -19 6 -3 7 0 8 9 5 29 -11
16 11 -31 55 -27 24 -39 37 -28 30 11 -7 42 -36 69 -62z m-209 -18 c0 -7 -8
-15 -17 -17 -18 -3 -25 18 -11 32 10 10 28 1 28 -15z m142 15 c-3 -3 -12 -4
-19 -1 -8 3 -5 6 6 6 11 1 17 -2 13 -5z m2278 -82 c-11 -11 -27 17 -20 35 6
16 8 16 16 -6 5 -13 7 -26 4 -29z m-350 7 c9 -17 15 -33 13 -35 -3 -2 -12 12
-21 31 -21 43 -13 47 8 4z m33 -74 c-3 -3 -9 2 -12 12 -6 14 -5 15 5 6 7 -7
10 -15 7 -18z m122 22 c0 -2 -15 -16 -32 -33 l-33 -29 29 33 c28 30 36 37 36
29z m-1924 -64 c-8 -15 -15 -25 -16 -21 0 12 23 58 27 54 3 -2 -2 -17 -11 -33z
m1849 -7 c8 4 15 2 15 -4 0 -5 -7 -12 -15 -16 -11 -4 -14 -14 -10 -33 4 -22 2
-21 -8 7 -8 19 -17 46 -21 60 l-8 25 16 -22 c10 -13 23 -20 31 -17z m255 14
c0 -5 -4 -10 -10 -10 -5 0 -10 5 -10 10 0 6 5 10 10 10 6 0 10 -4 10 -10z
m-2223 -82 c-3 -8 -6 -5 -6 6 -1 11 2 17 5 13 3 -3 4 -12 1 -19z m1740 16 c-3
-3 -12 -4 -19 -1 -8 3 -5 6 6 6 11 1 17 -2 13 -5z m-93 -51 c3 -16 17 -63 30
-105 18 -58 21 -78 12 -78 -8 0 -21 26 -30 58 -9 31 -23 78 -31 105 -11 38
-12 47 -1 47 8 0 16 -12 20 -27z m-1657 -5 c-3 -8 -6 -5 -6 6 -1 11 2 17 5 13
3 -3 4 -12 1 -19z m1980 0 c-3 -8 -6 -5 -6 6 -1 11 2 17 5 13 3 -3 4 -12 1
-19z m-1900 -30 c-3 -8 -6 -5 -6 6 -1 11 2 17 5 13 3 -3 4 -12 1 -19z m-90
-30 c-3 -7 -5 -2 -5 12 0 14 2 19 5 13 2 -7 2 -19 0 -25z m1580 10 c-3 -8 -6
-5 -6 6 -1 11 2 17 5 13 3 -3 4 -12 1 -19z m432 -62 c1 -57 -5 -40 -12 29 -3
37 -2 51 3 35 4 -14 8 -43 9 -64z m-486 14 c58 -48 73 -56 78 -43 4 12 8 7 12
-17 4 -18 5 -35 3 -37 -2 -3 -43 27 -91 66 -47 39 -88 71 -90 71 -2 0 -1 -10
1 -22 4 -21 4 -22 -5 -3 -30 64 3 59 92 -15z m-1446 28 c-3 -8 -6 -5 -6 6 -1
11 2 17 5 13 3 -3 4 -12 1 -19z m1690 16 c-3 -3 -12 -4 -19 -1 -8 3 -5 6 6 6
11 1 17 -2 13 -5z m-2082 -31 c87 -26 139 -75 161 -153 l7 -24 -29 19 c-34 21
-64 54 -64 68 0 5 -6 5 -13 -2 -10 -8 -19 -6 -34 9 -12 10 -23 25 -26 32 -4 9
-8 10 -14 2 -16 -21 -55 -7 -96 35 l-42 41 50 -6 c28 -3 72 -12 100 -21z m230
-20 c45 -46 64 -95 51 -130 -6 -15 -8 -15 -16 -3 -6 8 -10 25 -10 38 0 13 -6
22 -15 22 -8 0 -15 9 -15 20 0 11 -4 20 -10 20 -10 0 -40 52 -40 70 0 17 9 12
55 -37z m1463 -66 c18 -58 26 -100 20 -103 -5 -3 -10 -4 -12 -3 -9 13 -62 206
-59 212 9 16 21 -8 51 -106z m-1391 16 c-2 -16 -4 -5 -4 22 0 28 2 40 4 28 2
-13 2 -35 0 -50z m80 25 c-3 -7 -5 -2 -5 12 0 14 2 19 5 13 2 -7 2 -19 0 -25z
m1148 -70 c15 -51 32 -99 38 -105 7 -10 4 -13 -9 -13 -15 0 -25 20 -50 105
-21 71 -27 105 -19 105 6 0 24 -42 40 -92z m232 70 c-3 -8 -6 -5 -6 6 -1 11 2
17 5 13 3 -3 4 -12 1 -19z m366 -20 c-10 -18 -20 -6 -15 19 5 24 6 25 12 8 4
-11 6 -23 3 -27z m-773 -15 c0 -10 11 -54 25 -98 27 -86 30 -105 17 -105 -11
0 -73 200 -66 211 9 15 24 10 24 -8z m-983 -65 c-2 -13 -4 -3 -4 22 0 25 2 35
4 23 2 -13 2 -33 0 -45z m-50 -85 c-2 -27 -3 -5 -3 47 0 52 1 74 3 48 2 -27 2
-69 0 -95z m941 111 c24 -17 28 -44 11 -76 -9 -16 -7 -22 9 -34 11 -7 23 -25
26 -39 4 -14 14 -25 24 -25 14 0 15 -2 2 -10 -18 -11 -25 -4 -48 41 -10 20
-27 36 -42 39 l-25 6 23 6 c20 6 23 12 20 45 -2 28 -9 41 -28 50 -14 7 -18 13
-10 13 9 0 26 -7 38 -16z m-92 -3 c-5 -8 3 -43 21 -91 3 -8 7 -20 9 -27 1 -6
7 -28 14 -48 12 -36 7 -57 -9 -39 -5 5 -21 51 -36 103 -22 77 -25 95 -14 102
18 11 22 11 15 0z m-869 -98 c-2 -21 -4 -6 -4 32 0 39 2 55 4 38 2 -18 2 -50
0 -70z m691 40 c-2 -8 24 -102 47 -165 8 -24 10 -40 4 -44 -15 -9 -14 -9 -47
101 -29 97 -31 115 -11 115 5 0 8 -3 7 -7z m662 -18 c0 -8 -4 -15 -10 -15 -5
0 -7 7 -4 15 4 8 8 15 10 15 2 0 4 -7 4 -15z m667 -57 c-2 -13 -4 -3 -4 22 0
25 2 35 4 23 2 -13 2 -33 0 -45z m-1950 0 c-2 -13 -4 -5 -4 17 -1 22 1 32 4
23 2 -10 2 -28 0 -40z m547 -45 c34 -116 34 -114 20 -120 -6 -2 -15 16 -21 39
-6 24 -20 73 -31 111 -13 46 -16 67 -8 67 7 0 25 -44 40 -97z m579 67 c3 -11
1 -20 -4 -20 -5 0 -9 9 -9 20 0 11 2 20 4 20 2 0 6 -9 9 -20z m-733 -13 c0 -2
13 -48 30 -102 22 -75 26 -101 17 -107 -7 -5 -13 -1 -15 10 -2 9 -14 52 -28
95 -26 85 -29 107 -14 107 6 0 10 -2 10 -3z m-592 -51 c11 -12 -13 -24 -59
-30 -39 -5 -49 -10 -45 -21 3 -8 1 -15 -4 -15 -6 0 -10 5 -10 12 0 9 -3 9 -12
0 -7 -7 -23 -12 -37 -12 l-26 1 33 28 c40 34 87 51 126 45 16 -2 31 -6 34 -8z
m512 4 c0 -5 -2 -10 -4 -10 -3 0 -8 5 -11 10 -3 6 -1 10 4 10 6 0 11 -4 11
-10z m1615 -70 c-10 -39 -19 -69 -21 -67 -3 2 3 36 13 75 9 40 19 70 21 67 2
-2 -3 -36 -13 -75z m-1704 4 c5 -7 31 -15 57 -19 75 -11 103 -53 67 -101 -13
-17 -14 -16 -8 18 6 41 -4 50 -72 63 -54 9 -65 21 -64 64 1 27 3 30 6 11 3
-14 9 -30 14 -36z m-256 -9 c3 -25 10 -43 16 -40 5 4 10 -3 11 -14 0 -12 1
-27 2 -33 1 -7 7 -19 14 -26 6 -7 12 -23 12 -34 0 -13 5 -18 14 -15 9 4 16 -3
20 -18 3 -13 9 -31 13 -41 4 -12 3 -15 -5 -10 -7 4 -12 1 -12 -7 0 -16 92
-161 109 -171 6 -4 11 -17 12 -29 0 -12 3 -16 6 -9 7 18 33 -5 33 -30 0 -16
-6 -13 -34 16 -18 20 -42 36 -52 37 -17 0 -17 1 -2 7 15 6 14 12 -13 52 -17
25 -47 76 -67 114 -21 38 -43 80 -50 93 -12 22 -52 170 -52 194 0 5 4 9 9 9 5
0 12 -20 16 -45z m42 23 c-3 -8 -6 -5 -6 6 -1 11 2 17 5 13 3 -3 4 -12 1 -19z
m1834 -89 c10 -36 9 -50 -4 -81 -24 -57 -37 -47 -32 24 2 34 0 65 -6 68 -5 4
-6 21 -3 39 6 30 7 30 20 13 7 -11 19 -39 25 -63z m-2051 15 c0 -15 -64 -64
-83 -64 -20 0 -20 0 -1 -15 17 -13 17 -14 2 -15 -10 0 -18 -5 -18 -11 0 -5
-14 -15 -31 -21 -23 -8 -28 -13 -17 -20 11 -8 11 -10 -1 -15 -11 -5 -11 -7 0
-14 10 -6 11 -9 2 -9 -7 0 -13 -6 -13 -12 0 -7 -18 -23 -40 -35 l-40 -21 6 26
c21 90 85 185 145 211 37 17 89 25 89 15z m2101 -51 c-12 -20 -14 -14 -5 12 4
9 9 14 11 11 3 -2 0 -13 -6 -23z m-1636 -25 c6 -4 2 -8 -7 -8 -10 0 -18 7 -18
17 0 9 3 12 8 7 4 -5 12 -12 17 -16z m2024 -28 c-40 -49 -85 -85 -141 -110
-50 -23 -82 -25 -128 -9 l-33 12 39 19 c21 10 45 16 52 13 8 -3 26 6 39 20 19
19 32 23 51 18 17 -4 23 -2 18 6 -4 6 -1 11 6 12 7 1 2 5 -12 9 l-25 8 28 1
c15 1 27 5 27 10 0 7 53 22 103 30 4 0 -7 -17 -24 -39z m-408 -4 c-14 -36 -22
-33 -9 5 6 16 12 28 14 26 3 -2 0 -16 -5 -31z m-31 -56 c-6 -11 -13 -20 -16
-20 -2 0 0 9 6 20 6 11 13 20 16 20 2 0 0 -9 -6 -20z m-1962 -10 c-7 -11 -21
-20 -31 -20 -10 0 -16 -4 -12 -9 3 -5 -2 -16 -10 -24 -8 -9 -15 -22 -15 -31 0
-15 -50 -60 -58 -52 -17 18 54 131 92 146 38 16 48 13 34 -10z m1928 -147 c-1
-2 -9 8 -16 22 -13 24 -14 24 -33 8 -17 -15 -16 -12 3 14 l24 33 12 -37 c7
-21 12 -39 10 -40z m154 12 c0 4 7 2 15 -5 10 -8 15 -9 15 -1 0 7 8 8 26 1 14
-6 30 -7 35 -4 6 3 27 3 47 -1 l37 -8 -30 -13 c-65 -28 -166 -10 -174 31 -3
17 -1 18 13 6 9 -7 16 -10 16 -6z m-2057 -38 c15 -23 15 -24 -9 -19 -27 5 -38
17 -29 32 10 16 22 12 38 -13z m1817 9 c0 -2 -8 -10 -17 -17 -16 -13 -17 -12
-4 4 13 16 21 21 21 13z m108 -51 c0 -16 -2 -15 -8 5 -11 34 -11 60 0 35 5
-11 8 -29 8 -40z m-1800 -2 c-10 -2 -26 -2 -35 0 -10 3 -2 5 17 5 19 0 27 -2
18 -5z m302 -131 c0 -3 -6 1 -14 7 -11 10 -16 8 -21 -9 -3 -11 -11 -18 -16
-15 -5 4 -5 14 1 25 8 15 7 18 -3 14 -7 -2 -22 6 -33 18 l-19 23 21 -17 c31
-27 41 -22 14 7 -12 13 -26 22 -30 20 -4 -2 -7 2 -7 10 0 7 24 -7 54 -33 29
-25 53 -48 53 -50z m-234 33 c-36 -61 -43 -58 -9 4 16 27 30 48 32 46 2 -2 -9
-25 -23 -50z m81 8 c-3 -10 -5 -2 -5 17 0 19 2 27 5 18 2 -10 2 -26 0 -35z
m1533 -22 c0 -17 -18 -21 -24 -6 -3 9 0 15 9 15 8 0 15 -4 15 -9z m-1270 -118
c11 -12 -47 21 -79 45 -24 18 -35 21 -41 12 -5 -8 -9 -3 -12 13 -5 23 -2 22
61 -20 36 -25 68 -48 71 -50z m-280 77 c0 -5 -4 -10 -10 -10 -5 0 -10 5 -10
10 0 6 5 10 10 10 6 0 10 -4 10 -10z m-120 -16 c-8 -8 -23 -20 -34 -25 -13 -7
-9 -1 9 15 34 29 43 33 25 10z m231 -21 c-12 -20 -14 -14 -5 12 4 9 9 14 11
11 3 -2 0 -13 -6 -23z m1542 3 c8 -21 -3 -27 -19 -11 -18 17 -18 25 0 25 8 0
16 -6 19 -14z m-1848 -16 c11 -5 14 -9 8 -9 -7 -1 -13 -8 -13 -16 0 -17 -35
-21 -45 -5 -9 15 2 40 17 39 7 0 22 -4 33 -9z m235 -5 c0 -7 -57 -35 -72 -35
-7 0 5 9 27 19 48 23 45 22 45 16z m38 -46 c-13 -23 -39 -54 -58 -70 -53 -44
-56 -35 -4 13 25 23 52 55 60 70 8 15 17 28 20 28 3 0 -5 -19 -18 -41z m-163
11 c0 -22 -29 -18 -33 3 -3 14 1 18 15 15 10 -2 18 -10 18 -18z m421 -16 c18
-14 18 -14 -6 -3 -31 14 -36 19 -24 19 6 0 19 -7 30 -16z m54 -24 c8 -5 11
-10 5 -10 -5 0 -17 5 -25 10 -8 5 -10 10 -5 10 6 0 17 -5 25 -10z m-240 -15
c0 -8 -7 -15 -15 -15 -26 0 -18 20 13 29 1 1 2 -6 2 -14z m657 -31 c-3 -3 -12
-4 -19 -1 -8 3 -5 6 6 6 11 1 17 -2 13 -5z m-863 -20 c12 -5 13 -10 5 -25 -17
-33 -58 -18 -45 16 6 16 16 18 40 9z m674 -1 c-10 -2 -26 -2 -35 0 -10 3 -2 5
17 5 19 0 27 -2 18 -5z m349 1 c-3 -3 -12 -4 -19 -1 -8 3 -5 6 6 6 11 1 17 -2
13 -5z m-284 -11 c-7 -2 -21 -2 -30 0 -10 3 -4 5 12 5 17 0 24 -2 18 -5z m220
0 c-7 -2 -21 -2 -30 0 -10 3 -4 5 12 5 17 0 24 -2 18 -5z"/>
<path d="M1185 2620 c-3 -5 -1 -10 4 -10 6 0 11 5 11 10 0 6 -2 10 -4 10 -3 0
-8 -4 -11 -10z"/>
</g>
</svg>
